{
  "header": {
    "keySignatures": [
      {
        "key": "G",
        "scale": "major",
        "ticks": 0
      }
    ],
    "meta": [],
    "name": "",
    "ppq": 480,
    "tempos": [
      {
        "bpm": 120,
        "ticks": 0
      }
    ],
    "timeSignatures": [
      {
        "ticks": 0,
        "timeSignature": [
          1,
          8
        ],
        "measures": 0
      },
      {
        "ticks": 240,
        "timeSignature": [
          9,
          8
        ],
        "measures": 0.25
      }
    ]
  },
  "tracks": [
    {
      "channel": 0,
      "controlChanges": {
        "7": [
          {
            "number": 7,
            "ticks": 0,
            "time": 0,
            "value": 0.7874015748031497
          }
        ],
        "10": [
          {
            "number": 10,
            "ticks": 0,
            "time": 0,
            "value": 0.5039370078740157
          }
        ],
        "91": [
          {
            "number": 91,
            "ticks": 0,
            "time": 0,
            "value": 0
          }
        ],
        "93": [
          {
            "number": 93,
            "ticks": 0,
            "time": 0,
            "value": 0
          }
        ]
      },
      "pitchBends": [],
      "instrument": {
        "family": "strings",
        "name": "violin",
        "number": 40
      },
      "name": "",
      "notes": [
        {
          "duration": 0.24895833333333334,
          "durationTicks": 239,
          "midi": 59,
          "name": "B3",
          "ticks": 0,
          "time": 0,
          "velocity": 0.6299212598425197
        },
        {
          "duration": 0.3739583333333333,
          "durationTicks": 359,
          "midi": 64,
          "name": "E4",
          "ticks": 240,
          "time": 0.25,
          "velocity": 0.6299212598425197
        },
        {
          "duration": 0.12395833333333328,
          "durationTicks": 119,
          "midi": 59,
          "name": "B3",
          "ticks": 600,
          "time": 0.625,
          "velocity": 0.6299212598425197
        },
        {
          "duration": 0.24895833333333328,
          "durationTicks": 239,
          "midi": 64,
          "name": "E4",
          "ticks": 720,
          "time": 0.75,
          "velocity": 0.6299212598425197
        },
        {
          "duration": 0.7489583333333334,
          "durationTicks": 719,
          "midi": 67,
          "name": "G4",
          "ticks": 960,
          "time": 1,
          "velocity": 0.6299212598425197
        },
        {
          "duration": 0.7489583333333334,
          "durationTicks": 719,
          "midi": 64,
          "name": "E4",
          "ticks": 1680,
          "time": 1.75,
          "velocity": 0.6299212598425197
        },
        {
          "duration": 0.3739583333333334,
          "durationTicks": 359,
          "midi": 67,
          "name": "G4",
          "ticks": 2400,
          "time": 2.5,
          "velocity": 0.6299212598425197
        },
        {
          "duration": 0.12395833333333339,
          "durationTicks": 119,
          "midi": 64,
          "name": "E4",
          "ticks": 2760,
          "time": 2.875,
          "velocity": 0.6299212598425197
        },
        {
          "duration": 0.2489583333333334,
          "durationTicks": 239,
          "midi": 67,
          "name": "G4",
          "ticks": 2880,
          "time": 3,
          "velocity": 0.6299212598425197
        },
        {
          "duration": 0.7489583333333334,
          "durationTicks": 719,
          "midi": 71,
          "name": "B4",
          "ticks": 3120,
          "time": 3.25,
          "velocity": 0.6299212598425197
        },
        {
          "duration": 0.7489583333333334,
          "durationTicks": 719,
          "midi": 67,
          "name": "G4",
          "ticks": 3840,
          "time": 4,
          "velocity": 0.6299212598425197
        },
        {
          "duration": 0.3739583333333334,
          "durationTicks": 359,
          "midi": 71,
          "name": "B4",
          "ticks": 4560,
          "time": 4.75,
          "velocity": 0.6299212598425197
        },
        {
          "duration": 0.12395833333333339,
          "durationTicks": 119,
          "midi": 67,
          "name": "G4",
          "ticks": 4920,
          "time": 5.125,
          "velocity": 0.6299212598425197
        },
        {
          "duration": 0.2489583333333334,
          "durationTicks": 239,
          "midi": 71,
          "name": "B4",
          "ticks": 5040,
          "time": 5.25,
          "velocity": 0.6299212598425197
        },
        {
          "duration": 0.7489583333333334,
          "durationTicks": 719,
          "midi": 74,
          "name": "D5",
          "ticks": 5280,
          "time": 5.5,
          "velocity": 0.6299212598425197
        },
        {
          "duration": 0.7489583333333334,
          "durationTicks": 719,
          "midi": 62,
          "name": "D4",
          "ticks": 6000,
          "time": 6.25,
          "velocity": 0.6299212598425197
        },
        {
          "duration": 0.3739583333333334,
          "durationTicks": 359,
          "midi": 67,
          "name": "G4",
          "ticks": 6720,
          "time": 7,
          "velocity": 0.6299212598425197
        },
        {
          "duration": 0.12395833333333339,
          "durationTicks": 119,
          "midi": 62,
          "name": "D4",
          "ticks": 7080,
          "time": 7.375,
          "velocity": 0.6299212598425197
        },
        {
          "duration": 0.2489583333333334,
          "durationTicks": 239,
          "midi": 67,
          "name": "G4",
          "ticks": 7200,
          "time": 7.5,
          "velocity": 0.6299212598425197
        },
        {
          "duration": 2.9989583333333325,
          "durationTicks": 2879,
          "midi": 71,
          "name": "B4",
          "ticks": 7440,
          "time": 7.75,
          "velocity": 0.6299212598425197
        },
        {
          "duration": 0.2489583333333325,
          "durationTicks": 239,
          "midi": 62,
          "name": "D4",
          "ticks": 10800,
          "time": 11.25,
          "velocity": 0.6299212598425197
        },
        {
          "duration": 0.3739583333333325,
          "durationTicks": 359,
          "midi": 67,
          "name": "G4",
          "ticks": 11040,
          "time": 11.5,
          "velocity": 0.6299212598425197
        },
        {
          "duration": 0.1239583333333325,
          "durationTicks": 119,
          "midi": 62,
          "name": "D4",
          "ticks": 11400,
          "time": 11.875,
          "velocity": 0.6299212598425197
        },
        {
          "duration": 0.2489583333333325,
          "durationTicks": 239,
          "midi": 67,
          "name": "G4",
          "ticks": 11520,
          "time": 12,
          "velocity": 0.6299212598425197
        },
        {
          "duration": 0.7489583333333325,
          "durationTicks": 719,
          "midi": 71,
          "name": "B4",
          "ticks": 11760,
          "time": 12.25,
          "velocity": 0.6299212598425197
        },
        {
          "duration": 0.7489583333333325,
          "durationTicks": 719,
          "midi": 67,
          "name": "G4",
          "ticks": 12480,
          "time": 13,
          "velocity": 0.6299212598425197
        },
        {
          "duration": 0.3739583333333325,
          "durationTicks": 359,
          "midi": 71,
          "name": "B4",
          "ticks": 13200,
          "time": 13.75,
          "velocity": 0.6299212598425197
        },
        {
          "duration": 0.1239583333333325,
          "durationTicks": 119,
          "midi": 67,
          "name": "G4",
          "ticks": 13560,
          "time": 14.125,
          "velocity": 0.6299212598425197
        },
        {
          "duration": 0.2489583333333325,
          "durationTicks": 239,
          "midi": 71,
          "name": "B4",
          "ticks": 13680,
          "time": 14.25,
          "velocity": 0.6299212598425197
        },
        {
          "duration": 0.7489583333333325,
          "durationTicks": 719,
          "midi": 74,
          "name": "D5",
          "ticks": 13920,
          "time": 14.5,
          "velocity": 0.6299212598425197
        },
        {
          "duration": 0.7489583333333325,
          "durationTicks": 719,
          "midi": 71,
          "name": "B4",
          "ticks": 14640,
          "time": 15.25,
          "velocity": 0.6299212598425197
        },
        {
          "duration": 0.3739583333333343,
          "durationTicks": 359,
          "midi": 74,
          "name": "D5",
          "ticks": 15360,
          "time": 16,
          "velocity": 0.6299212598425197
        },
        {
          "duration": 0.12395833333333428,
          "durationTicks": 119,
          "midi": 71,
          "name": "B4",
          "ticks": 15720,
          "time": 16.375,
          "velocity": 0.6299212598425197
        },
        {
          "duration": 0.24895833333333428,
          "durationTicks": 239,
          "midi": 74,
          "name": "D5",
          "ticks": 15840,
          "time": 16.5,
          "velocity": 0.6299212598425197
        },
        {
          "duration": 0.7489583333333343,
          "durationTicks": 719,
          "midi": 78,
          "name": "F#5",
          "ticks": 16080,
          "time": 16.75,
          "velocity": 0.6299212598425197
        },
        {
          "duration": 0.7489583333333343,
          "durationTicks": 719,
          "midi": 66,
          "name": "F#4",
          "ticks": 16800,
          "time": 17.5,
          "velocity": 0.6299212598425197
        },
        {
          "duration": 0.3739583333333343,
          "durationTicks": 359,
          "midi": 71,
          "name": "B4",
          "ticks": 17520,
          "time": 18.25,
          "velocity": 0.6299212598425197
        },
        {
          "duration": 0.12395833333333428,
          "durationTicks": 119,
          "midi": 66,
          "name": "F#4",
          "ticks": 17880,
          "time": 18.625,
          "velocity": 0.6299212598425197
        },
        {
          "duration": 0.24895833333333428,
          "durationTicks": 239,
          "midi": 71,
          "name": "B4",
          "ticks": 18000,
          "time": 18.75,
          "velocity": 0.6299212598425197
        },
        {
          "duration": 2.9989583333333343,
          "durationTicks": 2879,
          "midi": 75,
          "name": "D#5",
          "ticks": 18240,
          "time": 19,
          "velocity": 0.6299212598425197
        },
        {
          "duration": 0.24895833333333428,
          "durationTicks": 239,
          "midi": 59,
          "name": "B3",
          "ticks": 21600,
          "time": 22.5,
          "velocity": 0.6299212598425197
        },
        {
          "duration": 0.3739583333333343,
          "durationTicks": 359,
          "midi": 60,
          "name": "C4",
          "ticks": 21840,
          "time": 22.75,
          "velocity": 0.6299212598425197
        },
        {
          "duration": 0.12395833333333428,
          "durationTicks": 119,
          "midi": 57,
          "name": "A3",
          "ticks": 22200,
          "time": 23.125,
          "velocity": 0.6299212598425197
        },
        {
          "duration": 0.24895833333333428,
          "durationTicks": 239,
          "midi": 60,
          "name": "C4",
          "ticks": 22320,
          "time": 23.25,
          "velocity": 0.6299212598425197
        },
        {
          "duration": 0.9989583333333343,
          "durationTicks": 959,
          "midi": 64,
          "name": "E4",
          "ticks": 22560,
          "time": 23.5,
          "velocity": 0.6299212598425197
        },
        {
          "duration": 0.24895833333333428,
          "durationTicks": 239,
          "midi": 71,
          "name": "B4",
          "ticks": 23760,
          "time": 24.75,
          "velocity": 0.6299212598425197
        },
        {
          "duration": 0.3739583333333343,
          "durationTicks": 359,
          "midi": 72,
          "name": "C5",
          "ticks": 24000,
          "time": 25,
          "velocity": 0.6299212598425197
        },
        {
          "duration": 0.12395833333333428,
          "durationTicks": 119,
          "midi": 69,
          "name": "A4",
          "ticks": 24360,
          "time": 25.375,
          "velocity": 0.6299212598425197
        },
        {
          "duration": 0.24895833333333428,
          "durationTicks": 239,
          "midi": 72,
          "name": "C5",
          "ticks": 24480,
          "time": 25.5,
          "velocity": 0.6299212598425197
        },
        {
          "duration": 0.9989583333333343,
          "durationTicks": 959,
          "midi": 76,
          "name": "E5",
          "ticks": 24720,
          "time": 25.75,
          "velocity": 0.6299212598425197
        },
        {
          "duration": 0.24895833333333428,
          "durationTicks": 239,
          "midi": 71,
          "name": "B4",
          "ticks": 25920,
          "time": 27,
          "velocity": 0.6299212598425197
        },
        {
          "duration": 0.3739583333333343,
          "durationTicks": 359,
          "midi": 72,
          "name": "C5",
          "ticks": 26160,
          "time": 27.25,
          "velocity": 0.6299212598425197
        },
        {
          "duration": 0.12395833333333428,
          "durationTicks": 119,
          "midi": 69,
          "name": "A4",
          "ticks": 26520,
          "time": 27.625,
          "velocity": 0.6299212598425197
        },
        {
          "duration": 0.24895833333333428,
          "durationTicks": 239,
          "midi": 72,
          "name": "C5",
          "ticks": 26640,
          "time": 27.75,
          "velocity": 0.6299212598425197
        },
        {
          "duration": 0.7489583333333343,
          "durationTicks": 719,
          "midi": 77,
          "name": "F5",
          "ticks": 26880,
          "time": 28,
          "velocity": 0.6299212598425197
        },
        {
          "duration": 0.7489583333333343,
          "durationTicks": 719,
          "midi": 71,
          "name": "B4",
          "ticks": 27600,
          "time": 28.75,
          "velocity": 0.6299212598425197
        },
        {
          "duration": 0.3739583333333343,
          "durationTicks": 359,
          "midi": 67,
          "name": "G4",
          "ticks": 28320,
          "time": 29.5,
          "velocity": 0.6299212598425197
        },
        {
          "duration": 0.12395833333333428,
          "durationTicks": 119,
          "midi": 71,
          "name": "B4",
          "ticks": 28680,
          "time": 29.875,
          "velocity": 0.6299212598425197
        },
        {
          "duration": 0.24895833333333428,
          "durationTicks": 239,
          "midi": 76,
          "name": "E5",
          "ticks": 28800,
          "time": 30,
          "velocity": 0.6299212598425197
        },
        {
          "duration": 2.9989583333333343,
          "durationTicks": 2879,
          "midi": 79,
          "name": "G5",
          "ticks": 29040,
          "time": 30.25,
          "velocity": 0.6299212598425197
        },
        {
          "duration": 0.24895833333333428,
          "durationTicks": 239,
          "midi": 59,
          "name": "B3",
          "ticks": 32400,
          "time": 33.75,
          "velocity": 0.6299212598425197
        },
        {
          "duration": 0.3739583333333343,
          "durationTicks": 359,
          "midi": 60,
          "name": "C4",
          "ticks": 32640,
          "time": 34,
          "velocity": 0.6299212598425197
        },
        {
          "duration": 0.12395833333333428,
          "durationTicks": 119,
          "midi": 57,
          "name": "A3",
          "ticks": 33000,
          "time": 34.375,
          "velocity": 0.6299212598425197
        },
        {
          "duration": 0.24895833333333428,
          "durationTicks": 239,
          "midi": 60,
          "name": "C4",
          "ticks": 33120,
          "time": 34.5,
          "velocity": 0.6299212598425197
        },
        {
          "duration": 0.9989583333333343,
          "durationTicks": 959,
          "midi": 64,
          "name": "E4",
          "ticks": 33360,
          "time": 34.75,
          "velocity": 0.6299212598425197
        },
        {
          "duration": 0.24895833333333428,
          "durationTicks": 239,
          "midi": 71,
          "name": "B4",
          "ticks": 34560,
          "time": 36,
          "velocity": 0.6299212598425197
        },
        {
          "duration": 0.3739583333333343,
          "durationTicks": 359,
          "midi": 72,
          "name": "C5",
          "ticks": 34800,
          "time": 36.25,
          "velocity": 0.6299212598425197
        },
        {
          "duration": 0.12395833333333428,
          "durationTicks": 119,
          "midi": 69,
          "name": "A4",
          "ticks": 35160,
          "time": 36.625,
          "velocity": 0.6299212598425197
        },
        {
          "duration": 0.24895833333333428,
          "durationTicks": 239,
          "midi": 72,
          "name": "C5",
          "ticks": 35280,
          "time": 36.75,
          "velocity": 0.6299212598425197
        },
        {
          "duration": 0.9989583333333343,
          "durationTicks": 959,
          "midi": 76,
          "name": "E5",
          "ticks": 35520,
          "time": 37,
          "velocity": 0.6299212598425197
        },
        {
          "duration": 0.24895833333333428,
          "durationTicks": 239,
          "midi": 71,
          "name": "B4",
          "ticks": 36720,
          "time": 38.25,
          "velocity": 0.6299212598425197
        },
        {
          "duration": 0.3739583333333343,
          "durationTicks": 359,
          "midi": 72,
          "name": "C5",
          "ticks": 36960,
          "time": 38.5,
          "velocity": 0.6299212598425197
        },
        {
          "duration": 0.12395833333333428,
          "durationTicks": 119,
          "midi": 69,
          "name": "A4",
          "ticks": 37320,
          "time": 38.875,
          "velocity": 0.6299212598425197
        },
        {
          "duration": 0.24895833333333428,
          "durationTicks": 239,
          "midi": 72,
          "name": "C5",
          "ticks": 37440,
          "time": 39,
          "velocity": 0.6299212598425197
        },
        {
          "duration": 0.7489583333333343,
          "durationTicks": 719,
          "midi": 78,
          "name": "F#5",
          "ticks": 37680,
          "time": 39.25,
          "velocity": 0.6299212598425197
        },
        {
          "duration": 0.7489583333333343,
          "durationTicks": 719,
          "midi": 71,
          "name": "B4",
          "ticks": 38400,
          "time": 40,
          "velocity": 0.6299212598425197
        },
        {
          "duration": 0.3739583333333343,
          "durationTicks": 359,
          "midi": 71,
          "name": "B4",
          "ticks": 39120,
          "time": 40.75,
          "velocity": 0.6299212598425197
        },
        {
          "duration": 0.12395833333333428,
          "durationTicks": 119,
          "midi": 76,
          "name": "E5",
          "ticks": 39480,
          "time": 41.125,
          "velocity": 0.6299212598425197
        },
        {
          "duration": 0.24895833333333428,
          "durationTicks": 239,
          "midi": 80,
          "name": "G#5",
          "ticks": 39600,
          "time": 41.25,
          "velocity": 0.6299212598425197
        },
        {
          "duration": 2.9989583333333343,
          "durationTicks": 2879,
          "midi": 83,
          "name": "B5",
          "ticks": 39840,
          "time": 41.5,
          "velocity": 0.6299212598425197
        },
        {
          "duration": 0.24895833333333428,
          "durationTicks": 239,
          "midi": 59,
          "name": "B3",
          "ticks": 43200,
          "time": 45,
          "velocity": 0.6299212598425197
        },
        {
          "duration": 0.3739583333333343,
          "durationTicks": 359,
          "midi": 64,
          "name": "E4",
          "ticks": 43440,
          "time": 45.25,
          "velocity": 0.6299212598425197
        },
        {
          "duration": 0.12395833333333428,
          "durationTicks": 119,
          "midi": 59,
          "name": "B3",
          "ticks": 43800,
          "time": 45.625,
          "velocity": 0.6299212598425197
        },
        {
          "duration": 0.24895833333333428,
          "durationTicks": 239,
          "midi": 64,
          "name": "E4",
          "ticks": 43920,
          "time": 45.75,
          "velocity": 0.6299212598425197
        },
        {
          "duration": 0.7489583333333343,
          "durationTicks": 719,
          "midi": 67,
          "name": "G4",
          "ticks": 44160,
          "time": 46,
          "velocity": 0.6299212598425197
        },
        {
          "duration": 0.7489583333333343,
          "durationTicks": 719,
          "midi": 64,
          "name": "E4",
          "ticks": 44880,
          "time": 46.75,
          "velocity": 0.6299212598425197
        },
        {
          "duration": 0.3739583333333343,
          "durationTicks": 359,
          "midi": 67,
          "name": "G4",
          "ticks": 45600,
          "time": 47.5,
          "velocity": 0.6299212598425197
        },
        {
          "duration": 0.12395833333333428,
          "durationTicks": 119,
          "midi": 64,
          "name": "E4",
          "ticks": 45960,
          "time": 47.875,
          "velocity": 0.6299212598425197
        },
        {
          "duration": 0.24895833333333428,
          "durationTicks": 239,
          "midi": 67,
          "name": "G4",
          "ticks": 46080,
          "time": 48,
          "velocity": 0.6299212598425197
        },
        {
          "duration": 0.7489583333333343,
          "durationTicks": 719,
          "midi": 71,
          "name": "B4",
          "ticks": 46320,
          "time": 48.25,
          "velocity": 0.6299212598425197
        },
        {
          "duration": 0.7489583333333343,
          "durationTicks": 719,
          "midi": 67,
          "name": "G4",
          "ticks": 47040,
          "time": 49,
          "velocity": 0.6299212598425197
        },
        {
          "duration": 0.3739583333333343,
          "durationTicks": 359,
          "midi": 71,
          "name": "B4",
          "ticks": 47760,
          "time": 49.75,
          "velocity": 0.6299212598425197
        },
        {
          "duration": 0.12395833333333428,
          "durationTicks": 119,
          "midi": 67,
          "name": "G4",
          "ticks": 48120,
          "time": 50.125,
          "velocity": 0.6299212598425197
        },
        {
          "duration": 0.24895833333333428,
          "durationTicks": 239,
          "midi": 71,
          "name": "B4",
          "ticks": 48240,
          "time": 50.25,
          "velocity": 0.6299212598425197
        },
        {
          "duration": 0.7489583333333343,
          "durationTicks": 719,
          "midi": 74,
          "name": "D5",
          "ticks": 48480,
          "time": 50.5,
          "velocity": 0.6299212598425197
        },
        {
          "duration": 0.7489583333333343,
          "durationTicks": 719,
          "midi": 62,
          "name": "D4",
          "ticks": 49200,
          "time": 51.25,
          "velocity": 0.6299212598425197
        },
        {
          "duration": 0.3739583333333343,
          "durationTicks": 359,
          "midi": 67,
          "name": "G4",
          "ticks": 49920,
          "time": 52,
          "velocity": 0.6299212598425197
        },
        {
          "duration": 0.12395833333333428,
          "durationTicks": 119,
          "midi": 62,
          "name": "D4",
          "ticks": 50280,
          "time": 52.375,
          "velocity": 0.6299212598425197
        },
        {
          "duration": 0.24895833333333428,
          "durationTicks": 239,
          "midi": 67,
          "name": "G4",
          "ticks": 50400,
          "time": 52.5,
          "velocity": 0.6299212598425197
        },
        {
          "duration": 0.7489583333333343,
          "durationTicks": 719,
          "midi": 71,
          "name": "B4",
          "ticks": 50640,
          "time": 52.75,
          "velocity": 0.6299212598425197
        },
        {
          "duration": 0.24895833333333428,
          "durationTicks": 239,
          "midi": 59,
          "name": "B3",
          "ticks": 51840,
          "time": 54,
          "velocity": 0.6299212598425197
        },
        {
          "duration": 0.3739583333333343,
          "durationTicks": 359,
          "midi": 67,
          "name": "G4",
          "ticks": 52080,
          "time": 54.25,
          "velocity": 0.6299212598425197
        },
        {
          "duration": 0.12395833333333428,
          "durationTicks": 119,
          "midi": 62,
          "name": "D4",
          "ticks": 52440,
          "time": 54.625,
          "velocity": 0.6299212598425197
        },
        {
          "duration": 0.24895833333333428,
          "durationTicks": 239,
          "midi": 67,
          "name": "G4",
          "ticks": 52560,
          "time": 54.75,
          "velocity": 0.6299212598425197
        },
        {
          "duration": 0.7489583333333343,
          "durationTicks": 719,
          "midi": 71,
          "name": "B4",
          "ticks": 52800,
          "time": 55,
          "velocity": 0.6299212598425197
        },
        {
          "duration": 0.7489583333333343,
          "durationTicks": 719,
          "midi": 67,
          "name": "G4",
          "ticks": 53520,
          "time": 55.75,
          "velocity": 0.6299212598425197
        },
        {
          "duration": 0.3739583333333343,
          "durationTicks": 359,
          "midi": 71,
          "name": "B4",
          "ticks": 54240,
          "time": 56.5,
          "velocity": 0.6299212598425197
        },
        {
          "duration": 0.12395833333333428,
          "durationTicks": 119,
          "midi": 67,
          "name": "G4",
          "ticks": 54600,
          "time": 56.875,
          "velocity": 0.6299212598425197
        },
        {
          "duration": 0.24895833333333428,
          "durationTicks": 239,
          "midi": 71,
          "name": "B4",
          "ticks": 54720,
          "time": 57,
          "velocity": 0.6299212598425197
        },
        {
          "duration": 0.7489583333333343,
          "durationTicks": 719,
          "midi": 74,
          "name": "D5",
          "ticks": 54960,
          "time": 57.25,
          "velocity": 0.6299212598425197
        },
        {
          "duration": 0.7489583333333343,
          "durationTicks": 719,
          "midi": 71,
          "name": "B4",
          "ticks": 55680,
          "time": 58,
          "velocity": 0.6299212598425197
        },
        {
          "duration": 0.3739583333333343,
          "durationTicks": 359,
          "midi": 74,
          "name": "D5",
          "ticks": 56400,
          "time": 58.75,
          "velocity": 0.6299212598425197
        },
        {
          "duration": 0.12395833333333428,
          "durationTicks": 119,
          "midi": 71,
          "name": "B4",
          "ticks": 56760,
          "time": 59.125,
          "velocity": 0.6299212598425197
        },
        {
          "duration": 0.24895833333333428,
          "durationTicks": 239,
          "midi": 74,
          "name": "D5",
          "ticks": 56880,
          "time": 59.25,
          "velocity": 0.6299212598425197
        },
        {
          "duration": 0.7489583333333343,
          "durationTicks": 719,
          "midi": 78,
          "name": "F#5",
          "ticks": 57120,
          "time": 59.5,
          "velocity": 0.6299212598425197
        },
        {
          "duration": 0.7489583333333343,
          "durationTicks": 719,
          "midi": 66,
          "name": "F#4",
          "ticks": 57840,
          "time": 60.25,
          "velocity": 0.6299212598425197
        },
        {
          "duration": 0.3739583333333343,
          "durationTicks": 359,
          "midi": 71,
          "name": "B4",
          "ticks": 58560,
          "time": 61,
          "velocity": 0.6299212598425197
        },
        {
          "duration": 0.12395833333333428,
          "durationTicks": 119,
          "midi": 66,
          "name": "F#4",
          "ticks": 58920,
          "time": 61.375,
          "velocity": 0.6299212598425197
        },
        {
          "duration": 0.24895833333333428,
          "durationTicks": 239,
          "midi": 71,
          "name": "B4",
          "ticks": 59040,
          "time": 61.5,
          "velocity": 0.6299212598425197
        },
        {
          "duration": 0.7489583333333343,
          "durationTicks": 719,
          "midi": 75,
          "name": "D#5",
          "ticks": 59280,
          "time": 61.75,
          "velocity": 0.6299212598425197
        },
        {
          "duration": 0.24895833333333428,
          "durationTicks": 239,
          "midi": 59,
          "name": "B3",
          "ticks": 60480,
          "time": 63,
          "velocity": 0.6299212598425197
        },
        {
          "duration": 0.3739583333333343,
          "durationTicks": 359,
          "midi": 71,
          "name": "B4",
          "ticks": 60720,
          "time": 63.25,
          "velocity": 0.6299212598425197
        },
        {
          "duration": 0.12395833333333428,
          "durationTicks": 119,
          "midi": 76,
          "name": "E5",
          "ticks": 61080,
          "time": 63.625,
          "velocity": 0.6299212598425197
        },
        {
          "duration": 0.24895833333333428,
          "durationTicks": 239,
          "midi": 80,
          "name": "G#5",
          "ticks": 61200,
          "time": 63.75,
          "velocity": 0.6299212598425197
        },
        {
          "duration": 2.9989583333333343,
          "durationTicks": 2879,
          "midi": 83,
          "name": "B5",
          "ticks": 61440,
          "time": 64,
          "velocity": 0.6299212598425197
        },
        {
          "duration": 0.12395833333333428,
          "durationTicks": 119,
          "midi": 83,
          "name": "B5",
          "ticks": 64320,
          "time": 67,
          "velocity": 0.6299212598425197
        },
        {
          "duration": 0.12395833333333428,
          "durationTicks": 119,
          "midi": 83,
          "name": "B5",
          "ticks": 64440,
          "time": 67.125,
          "velocity": 0.6299212598425197
        },
        {
          "duration": 0.12395833333333428,
          "durationTicks": 119,
          "midi": 83,
          "name": "B5",
          "ticks": 64560,
          "time": 67.25,
          "velocity": 0.6299212598425197
        },
        {
          "duration": 0.24895833333333428,
          "durationTicks": 239,
          "midi": 76,
          "name": "E5",
          "ticks": 64680,
          "time": 67.375,
          "velocity": 0.6299212598425197
        }
      ]
    },
    {
      "channel": 0,
      "controlChanges": {
        "121": [
          {
            "number": 121,
            "ticks": 0,
            "time": 0,
            "value": 0
          }
        ]
      },
      "pitchBends": [],
      "instrument": {
        "family": "piano",
        "name": "acoustic grand piano",
        "number": 0
      },
      "name": "",
      "notes": []
    },
    {
      "channel": 0,
      "controlChanges": {
        "7": [
          {
            "number": 7,
            "ticks": 0,
            "time": 0,
            "value": 0.7874015748031497
          }
        ],
        "10": [
          {
            "number": 10,
            "ticks": 0,
            "time": 0,
            "value": 0.5039370078740157
          }
        ],
        "91": [
          {
            "number": 91,
            "ticks": 0,
            "time": 0,
            "value": 0
          }
        ],
        "93": [
          {
            "number": 93,
            "ticks": 0,
            "time": 0,
            "value": 0
          }
        ]
      },
      "pitchBends": [],
      "instrument": {
        "family": "strings",
        "name": "pizzicato strings",
        "number": 45
      },
      "name": "",
      "notes": []
    },
    {
      "channel": 0,
      "controlChanges": {
        "121": [
          {
            "number": 121,
            "ticks": 0,
            "time": 0,
            "value": 0
          }
        ]
      },
      "pitchBends": [],
      "instrument": {
        "family": "piano",
        "name": "acoustic grand piano",
        "number": 0
      },
      "name": "",
      "notes": []
    },
    {
      "channel": 0,
      "controlChanges": {
        "7": [
          {
            "number": 7,
            "ticks": 0,
            "time": 0,
            "value": 0.7874015748031497
          }
        ],
        "10": [
          {
            "number": 10,
            "ticks": 0,
            "time": 0,
            "value": 0.5039370078740157
          }
        ],
        "91": [
          {
            "number": 91,
            "ticks": 0,
            "time": 0,
            "value": 0
          }
        ],
        "93": [
          {
            "number": 93,
            "ticks": 0,
            "time": 0,
            "value": 0
          }
        ]
      },
      "pitchBends": [],
      "instrument": {
        "family": "strings",
        "name": "tremolo strings",
        "number": 44
      },
      "name": "",
      "notes": []
    }
  ]
}